<svg width="133" height="40" viewBox="0 0 133 40" fill="none" xmlns="http://www.w3.org/2000/svg">
<rect width="133" height="40" fill="white"/>
<g style="mix-blend-mode:multiply">
<path d="M17.6711 4H4V24.3418H17.6711C23.2979 24.3418 27.8591 19.7883 27.8591 14.1709C27.8591 8.5535 23.2979 4 17.6711 4Z" fill="#689EFC"/>
<path d="M4 24.3418L14.6867 36H33.3333L4 4" fill="#B9BAFF"/>
<path d="M21.8341 23.456L4 4V24.3418H17.6711C19.1545 24.3418 20.5632 24.0252 21.8341 23.456Z" fill="#2F305F"/>
</g>
<path d="M42.7933 27V13H48.5133C49.9533 13 51.0867 13.4 51.9133 14.2C52.7533 14.9867 53.1733 16.0267 53.1733 17.32C53.1733 18.68 52.5467 19.6867 51.2933 20.34C52.2933 20.98 52.8467 21.9533 52.9533 23.26L53.2933 27H50.6733L50.3333 23.56C50.2933 23.0267 50.1 22.5933 49.7533 22.26C49.4067 21.9133 48.9733 21.74 48.4533 21.74H45.4333V27H42.7933ZM45.4333 19.46H48.3933C49.1267 19.46 49.6733 19.26 50.0333 18.86C50.4067 18.4467 50.5933 17.9333 50.5933 17.32C50.5933 16.7067 50.4067 16.2067 50.0333 15.82C49.6733 15.42 49.1267 15.22 48.3933 15.22H45.4333V19.46ZM59.8672 27.16C58.2939 27.16 57.0406 26.64 56.1072 25.6C55.1872 24.56 54.7272 23.3333 54.7272 21.92C54.7272 20.4933 55.1606 19.28 56.0272 18.28C56.8939 17.2667 58.1072 16.76 59.6672 16.76C61.2539 16.76 62.4672 17.24 63.3072 18.2C64.1472 19.16 64.5672 20.3 64.5672 21.62C64.5672 21.9133 64.5539 22.1933 64.5272 22.46H57.0872C57.1806 23.2733 57.4739 23.92 57.9672 24.4C58.4606 24.88 59.0939 25.12 59.8672 25.12C61.1606 25.12 61.9406 24.6267 62.2072 23.64H64.6072C64.4206 24.7067 63.8939 25.56 63.0272 26.2C62.1606 26.84 61.1072 27.16 59.8672 27.16ZM57.1472 20.84H62.1072C62.0539 20.1733 61.8072 19.6333 61.3672 19.22C60.9406 18.8067 60.3739 18.6 59.6672 18.6C58.2406 18.6 57.4006 19.3467 57.1472 20.84ZM66.5186 27V16.92H68.9786V18.5C69.232 17.9667 69.6053 17.5467 70.0986 17.24C70.6053 16.92 71.1986 16.76 71.8786 16.76C73.5053 16.76 74.5586 17.4 75.0386 18.68C75.2786 18.1333 75.6986 17.68 76.2986 17.32C76.912 16.9467 77.6053 16.76 78.3786 16.76C79.4586 16.76 80.3253 17.1133 80.9786 17.82C81.632 18.5133 81.9586 19.4 81.9586 20.48V27H79.4986V21.22C79.4986 20.5 79.3253 19.9267 78.9786 19.5C78.632 19.0733 78.1653 18.86 77.5786 18.86C76.9253 18.86 76.4053 19.08 76.0186 19.52C75.6453 19.9467 75.4586 20.5133 75.4586 21.22V27H73.0186V21.22C73.0186 20.5 72.8453 19.9267 72.4986 19.5C72.152 19.0733 71.6853 18.86 71.0986 18.86C70.4453 18.86 69.9253 19.0733 69.5386 19.5C69.1653 19.9267 68.9786 20.5 68.9786 21.22V27H66.5186ZM92.7716 25.7C91.7849 26.6733 90.5249 27.16 88.9916 27.16C87.4583 27.16 86.1916 26.6733 85.1916 25.7C84.2049 24.7133 83.7116 23.4667 83.7116 21.96C83.7116 20.4533 84.2049 19.2133 85.1916 18.24C86.1916 17.2533 87.4583 16.76 88.9916 16.76C90.5249 16.76 91.7849 17.2533 92.7716 18.24C93.7583 19.2133 94.2516 20.4533 94.2516 21.96C94.2516 23.4667 93.7583 24.7133 92.7716 25.7ZM86.9516 19.74C86.4449 20.3133 86.1916 21.0533 86.1916 21.96C86.1916 22.8667 86.4449 23.6067 86.9516 24.18C87.4716 24.7533 88.1516 25.04 88.9916 25.04C89.8183 25.04 90.4849 24.7533 90.9916 24.18C91.5116 23.6067 91.7716 22.8667 91.7716 21.96C91.7716 21.0533 91.5116 20.3133 90.9916 19.74C90.4849 19.1667 89.8183 18.88 88.9916 18.88C88.1516 18.88 87.4716 19.1667 86.9516 19.74ZM96.8732 13.88H99.3332V16.92H102.133V18.98H99.3332V23.38C99.3332 24.4067 99.8198 24.92 100.793 24.92H102.133V27H100.513C99.3932 27 98.5065 26.6933 97.8532 26.08C97.1998 25.4533 96.8732 24.5867 96.8732 23.48V18.98H94.8932V16.92H96.8732V13.88ZM108.305 27.16C106.731 27.16 105.478 26.64 104.545 25.6C103.625 24.56 103.165 23.3333 103.165 21.92C103.165 20.4933 103.598 19.28 104.465 18.28C105.331 17.2667 106.545 16.76 108.105 16.76C109.691 16.76 110.905 17.24 111.745 18.2C112.585 19.16 113.005 20.3 113.005 21.62C113.005 21.9133 112.991 22.1933 112.965 22.46H105.525C105.618 23.2733 105.911 23.92 106.405 24.4C106.898 24.88 107.531 25.12 108.305 25.12C109.598 25.12 110.378 24.6267 110.645 23.64H113.045C112.858 24.7067 112.331 25.56 111.465 26.2C110.598 26.84 109.545 27.16 108.305 27.16ZM105.585 20.84H110.545C110.491 20.1733 110.245 19.6333 109.805 19.22C109.378 18.8067 108.811 18.6 108.105 18.6C106.678 18.6 105.838 19.3467 105.585 20.84ZM114.956 27V12.6H117.416V27H114.956ZM121.118 31.08L122.558 26.98L118.878 16.92H121.378L123.698 23.84L126.018 16.92H128.538L125.458 25.36L123.458 31.08H121.118Z" fill="#14151F"/>
</svg>
